<?xml version="1.0" standalone="no"?>
<!DOCTYPE svg PUBLIC "-//W3C//DTD SVG 20010904//EN"
 "http://www.w3.org/TR/2001/REC-SVG-20010904/DTD/svg10.dtd">
<svg version="1.0" xmlns="http://www.w3.org/2000/svg"
 width="200.000000pt" height="200.000000pt" viewBox="0 0 200.000000 200.000000"
 preserveAspectRatio="xMidYMid meet">

<g transform="translate(0.000000,200.000000) scale(0.100000,-0.100000)"
fill="#000000" stroke="none">
<path d="M872 1288 c3 -46 6 -53 26 -56 24 -4 31 -22 7 -22 -8 0 -21 -13 -30
-30 -17 -33 -30 -38 -39 -15 -8 23 -59 18 -81 -7 -17 -20 -19 -38 -19 -146 0
-67 5 -127 10 -132 7 -7 94 -9 230 -8 l219 3 3 132 c2 122 1 134 -18 153 -24
24 -75 27 -84 5 -9 -23 -22 -18 -36 15 -7 17 -19 30 -26 30 -8 0 -14 5 -14 10
0 6 9 10 20 10 18 0 20 7 20 55 l0 55 -96 0 -95 0 3 -52z m178 2 l0 -40 -80 0
-80 0 0 40 0 40 80 0 80 0 0 -40z m-50 -70 c0 -5 -13 -10 -30 -10 -16 0 -30 5
-30 10 0 6 14 10 30 10 17 0 30 -4 30 -10z m39 -34 c28 -17 5 -26 -69 -26 -44
0 -80 2 -80 4 0 25 15 32 74 30 35 -1 68 -4 75 -8z m-226 -23 c-7 -2 -19 -2
-25 0 -7 3 -2 5 12 5 14 0 19 -2 13 -5z m340 0 c-7 -2 -21 -2 -30 0 -10 3 -4
5 12 5 17 0 24 -2 18 -5z m37 -58 l0 -35 -61 0 c-51 0 -66 4 -91 25 -20 17
-42 25 -68 25 -26 0 -48 -8 -68 -25 -25 -21 -40 -25 -91 -25 l-61 0 0 35 0 35
220 0 220 0 0 -35z m-152 -30 c34 -40 26 -109 -17 -142 -9 -7 -33 -13 -54 -13
-87 0 -121 102 -55 164 26 24 37 27 67 22 21 -3 45 -16 59 -31z m-178 -55 l0
-40 -55 0 -55 0 0 40 0 40 55 0 55 0 0 -40z m330 0 l0 -40 -55 0 c-52 0 -55 2
-55 24 0 13 -3 31 -6 40 -5 14 3 16 55 16 l61 0 0 -40z m-306 -75 c9 -23 73
-47 107 -40 15 4 39 17 51 31 20 20 33 24 86 24 l62 0 0 -35 0 -35 -220 0
-220 0 0 35 0 35 64 0 c48 0 65 -4 70 -15z"/>
<path d="M907 1314 c-4 -4 -7 -18 -7 -31 0 -23 2 -24 68 -21 64 3 67 4 67 28
0 24 -3 25 -60 28 -34 2 -64 0 -68 -4z m113 -30 c0 -12 -10 -14 -52 -12 -74 4
-77 28 -4 28 44 0 56 -3 56 -16z"/>
<path d="M938 1173 c18 -2 45 -2 60 0 15 2 0 4 -33 4 -33 0 -45 -2 -27 -4z"/>
<path d="M1123 1114 c-8 -21 13 -42 28 -27 13 13 5 43 -11 43 -6 0 -13 -7 -17
-16z"/>
<path d="M771 1104 c0 -11 3 -14 6 -6 3 7 2 16 -1 19 -3 4 -6 -2 -5 -13z"/>
<path d="M800 1105 c0 -8 5 -15 10 -15 6 0 10 7 10 15 0 8 -4 15 -10 15 -5 0
-10 -7 -10 -15z"/>
<path d="M841 1104 c0 -11 3 -14 6 -6 3 7 2 16 -1 19 -3 4 -6 -2 -5 -13z"/>
<path d="M934 1078 c-22 -10 -44 -47 -44 -72 0 -7 9 -25 21 -40 26 -33 79 -36
109 -6 30 30 27 83 -6 109 -29 23 -48 25 -80 9z m78 -25 c24 -21 23 -58 -2
-83 -53 -53 -126 13 -90 81 13 24 66 26 92 2z"/>
<path d="M970 1055 c0 -3 9 -14 20 -25 15 -15 20 -16 20 -5 0 8 -9 19 -20 25
-11 6 -20 8 -20 5z"/>
<path d="M927 1013 c-8 -13 18 -43 36 -43 7 1 5 6 -4 13 -9 7 -18 19 -21 27
-3 9 -7 10 -11 3z"/>
<path d="M885 814 c-19 -21 -25 -23 -25 -10 0 18 -25 22 -35 6 -4 -6 -10 -8
-15 -5 -10 6 -30 -73 -29 -112 1 -25 2 -23 10 10 10 45 34 93 51 103 8 5 10
-12 5 -67 -4 -46 -3 -66 3 -54 5 11 9 33 9 48 1 27 37 87 53 87 4 0 5 -24 2
-54 -4 -30 -4 -62 0 -71 6 -16 8 -16 30 -2 21 14 25 14 39 0 13 -13 21 -14 41
-5 36 16 44 51 16 74 -27 22 -15 43 31 53 17 4 28 9 25 12 -9 10 -76 -19 -86
-37 -8 -14 -4 -21 15 -34 21 -14 24 -20 14 -37 -14 -28 -51 -21 -60 11 -4 15
-7 18 -8 8 -1 -15 -29 -38 -46 -38 -3 0 -3 32 1 70 7 79 -1 87 -41 44z"/>
<path d="M1140 783 c-38 -26 -49 -45 -50 -80 0 -28 4 -33 24 -33 13 0 30 8 37
18 11 14 11 15 -1 5 -8 -7 -22 -13 -33 -13 -14 0 -18 6 -15 26 2 22 9 27 37
29 36 3 78 36 67 54 -10 16 -38 13 -66 -6z m39 -17 c-18 -18 -59 -30 -59 -18
0 11 62 43 69 36 3 -2 -2 -11 -10 -18z"/>
<path d="M696 730 c8 -56 30 -110 44 -110 11 0 34 49 26 57 -2 3 -7 -5 -11
-16 -3 -12 -10 -21 -15 -21 -10 0 -30 55 -30 84 0 12 -5 28 -11 36 -7 11 -8 3
-3 -30z"/>
<path d="M1216 710 c-55 -59 -61 -79 -8 -28 50 50 92 65 109 42 12 -16 13 -16
13 -2 0 19 -5 23 -41 31 -22 6 -34 -1 -73 -43z"/>
</g>
</svg>
